<svg width="713" height="713" viewBox="0 0 713 713" fill="none" xmlns="http://www.w3.org/2000/svg">
<rect width="713" height="713" rx="356.5" fill="#7CA1FF"/>
<path d="M356 42.743C182.53 42.743 41.7429 183.53 41.7429 357C41.7429 530.47 182.53 671.257 356 671.257C529.47 671.257 670.257 530.47 670.257 357C670.257 183.53 529.47 42.743 356 42.743ZM356 608.406C217.413 608.406 104.594 495.587 104.594 357C104.594 218.413 217.413 105.594 356 105.594C494.587 105.594 607.405 218.413 607.405 357C607.405 495.587 494.587 608.406 356 608.406ZM500.244 218.098L293.148 425.194L211.756 344.115L167.446 388.426L293.148 514.128L544.554 262.723L500.244 218.098Z" fill="#CD7197"/>
</svg>
