<svg width="630" height="630" viewBox="0 0 630 630" fill="none" xmlns="http://www.w3.org/2000/svg">
<path d="M315 0.743042C141.53 0.743042 0.74292 141.53 0.74292 315C0.74292 488.47 141.53 629.257 315 629.257C488.47 629.257 629.257 488.47 629.257 315C629.257 141.53 488.47 0.743042 315 0.743042ZM315 566.406C176.413 566.406 63.5943 453.587 63.5943 315C63.5943 176.413 176.413 63.5944 315 63.5944C453.587 63.5944 566.405 176.413 566.405 315C566.405 453.587 453.587 566.406 315 566.406ZM459.244 176.098L252.148 383.194L170.756 302.115L126.446 346.426L252.148 472.128L503.554 220.723L459.244 176.098Z" fill="#CD7197"/>
</svg>
